<?xml version="1.0" encoding="UTF-8" standalone="no"?>
<!-- Created with Inkscape (http://www.inkscape.org/) -->

<svg
   width="600"
   height="600"
   viewBox="0 0 158.75 158.75"
   version="1.1"
   id="svg5"
   inkscape:version="1.1.1 (3bf5ae0d25, 2021-09-20)"
   sodipodi:docname="ghost-jack-cover.svg"
   xmlns:inkscape="http://www.inkscape.org/namespaces/inkscape"
   xmlns:sodipodi="http://sodipodi.sourceforge.net/DTD/sodipodi-0.dtd"
   xmlns="http://www.w3.org/2000/svg"
   xmlns:svg="http://www.w3.org/2000/svg">
  <sodipodi:namedview
     id="namedview7"
     pagecolor="#ffffff"
     bordercolor="#666666"
     borderopacity="1.0"
     inkscape:pageshadow="2"
     inkscape:pageopacity="0.0"
     inkscape:pagecheckerboard="true"
     inkscape:document-units="mm"
     showgrid="false"
     units="px"
     inkscape:zoom="1.0263363"
     inkscape:cx="283.04563"
     inkscape:cy="277.19959"
     inkscape:window-width="1920"
     inkscape:window-height="1017"
     inkscape:window-x="-8"
     inkscape:window-y="-8"
     inkscape:window-maximized="1"
     inkscape:current-layer="layer4"
     inkscape:snap-others="false"
     inkscape:snap-nodes="false" />
  <defs
     id="defs2" />
  <g
     inkscape:groupmode="layer"
     id="layer4"
     inkscape:label="Layer 4" />
  <g
     inkscape:groupmode="layer"
     id="layer2"
     inkscape:label="Layer 2">
    <path
       id="path10898"
       style="fill:#e60000;fill-opacity:1;stroke:#000000;stroke-width:1.32292;stroke-linecap:butt;stroke-linejoin:round;stroke-miterlimit:4;stroke-dasharray:none;stroke-opacity:1"
       d="M 73.436356,23.666608 C 70.124204,31.365706 63.492464,37.031907 56.900468,42.608163 41.890783,56.476639 21.368404,64.130265 9.5338729,81.394089 1.614422,90.958237 2.3628581,106.22648 11.524361,114.69706 c 8.466084,8.05572 20.656028,10.94108 32.055662,9.50836 14.678305,-0.56942 23.659799,-7.56194 31.104261,-19.73266 0.825661,11.79266 -5.741161,26.17321 -9.725851,30.81916 -8.737235,9.20947 -10.641623,10.7095 -21.289586,13.92776 -7.103592,2.03847 -17.926259,5.40205 -25.264286,4.42745 8.323134,3.19689 21.441362,4.75652 30.31064,3.29273 9.955059,-1.58322 13.166092,-2.76817 21.523297,-10.24629 5.159716,-5.23376 10.039864,-14.96125 10.65076,-22.27397 1.495343,-9.82356 1.032471,-17.48803 -0.475117,-27.320995 7.289493,0.370346 13.826058,2.093897 20.930009,0.395274 4.73202,-1.108927 6.85829,-10.793547 7.76133,-14.930263 -3.88077,5.129353 -9.506121,5.785571 -16.203224,6.264486 -10.550051,0.475215 -21.363998,-0.303587 -31.886782,0.196552 -6.294376,-1.206799 -11.009238,10.651716 -10.070396,14.409276 2.639899,-6.624548 7.726228,-5.67521 13.89827,-6.316321 4.120785,-0.541682 10.133196,-0.713311 10.133196,-0.713311 0,0 -3.515837,3.464101 -5.30482,5.169292 -4.876042,4.64766 -9.15935,7.27801 -18.486916,10.01655 -9.971877,1.26645 -15.321762,1.53131 -23.076784,-4.99195 C 23.420986,100.54341 23.576315,95.95783 26.513886,87.050344 33.211163,73.748327 41.180964,68.579413 50.600054,59.93609 56.272372,54.730951 62.36338,48.255071 66.766623,43.441848 71.23446,37.492775 74.924435,31.829981 76.115645,32.58052 c 2.019129,1.272181 0.97362,6.216765 0.97362,6.216765 0,0 2.35575,-8.441092 1.869747,-13.852167 -0.363386,-4.045872 -1.432232,-5.564321 -4.756648,-9.331107 0,0 0.29953,5.575754 -0.766008,8.052597 z"
       sodipodi:nodetypes="acccccccccccccccccccscccscscsca" />
  </g>
  <g
     inkscape:groupmode="layer"
     id="layer3"
     inkscape:label="Layer 3">
    <path
       style="fill:#e60000;fill-opacity:1;stroke:#000000;stroke-width:1.32292;stroke-linecap:butt;stroke-linejoin:round;stroke-miterlimit:4;stroke-dasharray:none;stroke-opacity:1"
       d="m 92.74664,1.0260447 c 0,0 -8.875185,20.9760933 -1.940194,29.1046363 10.388844,10.817474 25.611744,23.383604 38.185344,31.483319 10.38478,7.195473 20.85284,15.836741 25.54168,27.943126 3.65134,10.580704 -1.30111,23.022424 -10.82957,28.717644 -7.15093,4.68776 -19.73487,6.22944 -28.28172,6.13315 -5.12813,-0.0578 -13.1841,-1.4214 -18.451897,-3.74588 -5.267794,-2.32449 -9.427649,-5.60983 -11.047946,-7.59984 -3.240593,-3.98002 -4.36684,-11.99473 -1.769941,-13.958409 0,0 0.976421,5.844669 3.289845,8.008469 2.738803,2.56165 3.61283,3.11257 8.094923,5.39904 2.747284,1.40149 9.387276,3.46614 12.623286,3.33176 9.09773,-0.37781 13.30677,-1.98352 18.02712,-5.17306 4.72035,-3.18955 5.49418,-6.20689 6.79499,-12.823336 -0.75081,-5.946573 0.27793,-8.228635 -4.09562,-15.557508 -4.37354,-7.328873 -13.74581,-16.554187 -25.33579,-28.825503 -1.63318,-1.729185 -1.92069,-2.138207 -11.027367,-12.264045 -2.761181,-3.070194 -5.480719,-5.73184 -5.480719,-5.73184 -4.182955,0.08211 -2.668048,24.194886 -2.668048,24.194886 C 77.68313,45.583708 80.366763,23.537926 80.366763,23.537926 81.65304,14.698351 92.950428,4.3119819 92.74664,1.0260447 Z"
       id="path10898-3"
       sodipodi:nodetypes="czzzzssssssszczssscsc" />
    <path
       id="path18924"
       style="fill:#e60000;fill-opacity:1;stroke:#000000;stroke-width:1.32292;stroke-linecap:butt;stroke-linejoin:round;stroke-miterlimit:4;stroke-dasharray:none;stroke-opacity:1"
       d="m 83.492175,117.80746 c 0,0 -1.114274,4.62895 -1.291016,6.36537 -0.176742,1.73642 0.355521,5.61487 0.818766,8.13542 0.463243,2.52055 1.29395,4.31717 2.382097,7.27815 1.088144,2.96099 1.301996,3.19553 2.978007,5.70436 0.977995,1.6061 2.569485,1.59436 1.515068,3.17599 -0.89067,1.33599 -3.129021,2.56822 -4.854117,3.16264 -1.725097,0.59442 -3.477303,1.1011 -5.525627,1.34096 -2.048323,0.2399 -2.699896,0.51053 -5.288876,0.33383 -2.588982,-0.1767 -10.041191,-0.2852 -10.041191,-0.2852 0,0 4.648226,2.02151 6.871875,2.64767 2.223648,0.62616 4.548986,1.31896 7.506001,1.66811 2.957015,0.34915 5.903741,0.43202 10.174573,0.16692 3.8696,-0.2402 12.928005,-1.75947 14.670425,-2.05517 0.2779,0.0733 0.55174,0.1461 0.84232,0.22014 3.62388,0.92338 8.69267,1.51205 12.0096,1.83503 3.31694,0.323 5.63515,0.45794 7.83984,0.33382 2.20469,-0.1241 5.50805,-0.37359 8.17314,-1.00097 2.66509,-0.62738 7.67292,-3.16931 7.67292,-3.16931 0,0 -6.43743,-1.19815 -10.30959,-1.59741 -3.87216,-0.39926 -7.44007,-1.57305 -11.23031,-2.55053 -3.79024,-0.97748 -10.82577,-3.6536 -10.82577,-3.6536 -2.99227,-1.63217 -6.28859,-2.68289 -9.56219,-5.57476 -3.273597,-2.89187 -6.757236,-6.02778 -8.753628,-9.62599 -1.99639,-3.5982 -5.772317,-12.85547 -5.772317,-12.85547 z"
       sodipodi:nodetypes="csssccscscssscsssscsscssc" />
    <path
       style="fill:#e60000;fill-opacity:1;stroke:#000000;stroke-width:1.11194;stroke-linecap:butt;stroke-linejoin:miter;stroke-miterlimit:4;stroke-dasharray:none;stroke-opacity:1"
       d="m 57.967427,60.989327 c 2.659906,0.445816 4.573139,1.254131 7.014008,2.440398 1.353531,0.727718 3.567968,3.223079 4.548119,4.575246 2.007589,2.769561 2.019815,3.776471 2.971886,6.104183 0.52905,1.564663 0.776275,3.255779 1.110473,4.870597 l 3.401197,4.469491 c -2.029085,-0.3566 -4.205663,-0.627182 -5.869395,-2.197148 -0.975713,-0.704239 -1.800932,-1.852675 -2.75896,-2.454806 -2.098338,0.179878 -4.275419,0.286844 -6.270171,-0.64767 -1.756664,-0.657706 -3.677025,-1.940984 -4.085652,-4.258146 -0.302323,-1.767197 -0.168867,-3.607674 0.06298,-5.375127 0.213374,-1.123577 0.522446,-2.218265 0.858499,-3.297555 -0.379644,-1.120266 -0.886665,-2.292926 -1.891234,-2.768329 -0.452347,-0.351233 -1.378289,-0.655289 -1.597034,-0.906695 0.812632,-0.284139 1.649342,-0.591963 2.50527,-0.554439 z"
       id="path12959"
       sodipodi:nodetypes="ssssccscssscscss" />
    <path
       style="fill:#e60000;fill-opacity:1;stroke:#000000;stroke-width:1.10612;stroke-linecap:butt;stroke-linejoin:miter;stroke-miterlimit:4;stroke-dasharray:none;stroke-opacity:1"
       d="m 101.03156,60.986418 c -2.632878,0.445695 -4.52667,1.253789 -6.942738,2.439733 -1.339777,0.72752 -3.53171,3.222203 -4.501905,4.573999 -1.987188,2.768809 -1.999292,3.775443 -2.941683,6.102521 -0.523681,1.564237 -0.76839,3.254893 -1.099192,4.869271 l -3.366638,4.468273 c 2.008471,-0.356502 4.162931,-0.62701 5.809754,-2.196549 0.965804,-0.704047 1.782634,-1.852171 2.730926,-2.454137 2.077018,0.179829 4.231974,0.286764 6.206458,-0.647493 1.738817,-0.657529 3.639668,-1.940456 4.044138,-4.256988 0.29924,-1.766715 0.16715,-3.606692 -0.0623,-5.373663 -0.21121,-1.123271 -0.51715,-2.217659 -0.84978,-3.296657 0.37579,-1.119958 0.87766,-2.2923 1.87201,-2.767574 0.44775,-0.351136 1.36429,-0.65511 1.58082,-0.906449 -0.80439,-0.284061 -1.63259,-0.5918 -2.47982,-0.554287 z"
       id="path12959-9"
       sodipodi:nodetypes="ssssccscssscscss" />
  </g>
</svg>
